<svg xmlns="http://www.w3.org/2000/svg" version="1.1" xmlns:xlink="http://www.w3.org/1999/xlink" xmlns:svgjs="http://svgjs.com/svgjs" id="Pattern1103SvgRootPreview" width="100%" height="100%"><defs><pattern x="0" y="0" width="1" height="1" patternUnits="userSpaceOnUse" id="Pattern1103Layer1"><g id="PatternRootContent1"><g id="Pattern1103Layer1background"><rect width="1" height="1" id="Pattern1103Background1" class="color_1 fill_color_1" fill="#e4d8dc"></rect></g></g></pattern><pattern x="0" y="0" width="30" height="36" patternUnits="userSpaceOnUse" id="Pattern1103Layer2" patternTransform="matrix(1,0,0,1,0,0)"><g id="PatternRootContent2"><g id="Pattern1103Layer2Element1"><use xlink:href="#Pattern1103Element1" x="18" y="-21" transform="translate(28.389999389648438, -10.610000610351562) scale(1) translate(-28.389999389648438, 10.610000610351562) rotate(-90, 30, -9)"></use><use xlink:href="#Pattern1103Element1" x="-12" y="-21" transform="translate(-1.6100006103515625, -10.610000610351562) scale(1) translate(1.6100006103515625, 10.610000610351562) rotate(-90, 0, -9)"></use><use xlink:href="#Pattern1103Element1" x="3" y="-3" transform="translate(13.389999389648438, 7.3899993896484375) scale(1) translate(-13.389999389648438, -7.3899993896484375) rotate(90, 15, 9)"></use><use xlink:href="#Pattern1103Element1" x="-27" y="-3" transform="translate(-16.610000610351562, 7.3899993896484375) scale(1) translate(16.610000610351562, -7.3899993896484375) rotate(90, -15, 9)"></use><use xlink:href="#Pattern1103Element1" x="33" y="-3" transform="translate(43.38999938964844, 7.3899993896484375) scale(1) translate(-43.38999938964844, -7.3899993896484375) rotate(90, 45, 9)"></use><use xlink:href="#Pattern1103Element1" x="18" y="15" transform="translate(28.389999389648438, 25.389999389648438) scale(1) translate(-28.389999389648438, -25.389999389648438) rotate(-90, 30, 27)"></use><use xlink:href="#Pattern1103Element1" x="-12" y="15" transform="translate(-1.6100006103515625, 25.389999389648438) scale(1) translate(1.6100006103515625, -25.389999389648438) rotate(-90, 0, 27)"></use><use xlink:href="#Pattern1103Element1" x="3" y="33" transform="translate(13.389999389648438, 43.38999938964844) scale(1) translate(-13.389999389648438, -43.38999938964844) rotate(90, 15, 45)"></use><use xlink:href="#Pattern1103Element1" x="3" y="33" transform="translate(13.389999389648438, 43.38999938964844) scale(1) translate(-13.389999389648438, -43.38999938964844) rotate(90, 15, 45)"></use></g></g></pattern><symbol id="Pattern1103Element1"><path d="M12,2L16,6H13V13.82L22.39,19.25L21.39,21L12,15.56L2.61,21L1.61,19.25L11,13.82V6H8L12,2Z" class="color_2 fill_color_2" fill="#cfc0c5"></path></symbol></defs><rect width="100%" height="100%" id="Pattern1103RctLayer1" fill="url(#Pattern1103Layer1)"></rect><rect width="100%" height="100%" id="Pattern1103RctLayer2" fill="url(#Pattern1103Layer2)"></rect></svg>