<svg xmlns="http://www.w3.org/2000/svg" version="1.1" xmlns:xlink="http://www.w3.org/1999/xlink" xmlns:svgjs="http://svgjs.com/svgjs" id="Pattern1102SvgRootPreview" width="100%" height="100%"><defs><pattern x="0" y="0" width="0.625" height="0.625" patternUnits="userSpaceOnUse" id="Pattern1102Layer1" viewBox="0 0 0.625 0.625" preserveAspectRatio="xMidYMid slice"><g id="PatternRootContent1" transform="scale(0.625) rotate(0)"><g id="Pattern1102Layer1background"><rect width="1" height="1" id="Pattern1102Background1" class="color_1 fill_color_1" fill="#ffb0a2"></rect></g></g></pattern><pattern x="0" y="0" width="12.5" height="16.25" patternUnits="userSpaceOnUse" id="Pattern1102Layer2" viewBox="0 0 12.5 16.25" preserveAspectRatio="xMidYMid slice"><g id="PatternRootContent2" transform="scale(0.625) rotate(0)"><g id="Pattern1102Layer2Element1"><use xlink:href="#Pattern1102Element1" x="-22" y="-25" transform="translate(-11.610000610351562, -14.610000610351562) scale(1) translate(11.610000610351562, 14.610000610351562) rotate(0, -10, -13)"></use><use xlink:href="#Pattern1102Element1" x="-2" y="-25" transform="translate(8.389999389648438, -14.610000610351562) scale(1) translate(-8.389999389648438, 14.610000610351562) rotate(0, 10, -13)"></use><use xlink:href="#Pattern1102Element1" x="-2" y="1" transform="translate(8.389999389648438, 11.389999389648438) scale(1) translate(-8.389999389648438, -11.389999389648438) rotate(0, 10, 13)"></use><use xlink:href="#Pattern1102Element1" x="-22" y="1" transform="translate(-11.610000610351562, 11.389999389648438) scale(1) translate(11.610000610351562, -11.389999389648438) rotate(0, -10, 13)"></use><use xlink:href="#Pattern1102Element1" x="18" y="1" transform="translate(28.389999389648438, 11.389999389648438) scale(1) translate(-28.389999389648438, -11.389999389648438) rotate(0, 30, 13)"></use></g></g></pattern><symbol id="Pattern1102Element1"><path d="M12,2L16,6H13V13.82L22.39,19.25L21.39,21L12,15.56L2.61,21L1.61,19.25L11,13.82V6H8L12,2Z" class="color_2 fill_color_2" fill="#737373"></path></symbol></defs><rect width="100%" height="100%" id="Pattern1102RctLayer1" fill="url(#Pattern1102Layer1)"></rect><rect width="100%" height="100%" id="Pattern1102RctLayer2" fill="url(#Pattern1102Layer2)"></rect></svg>